<?xml version="1.0" standalone="no"?><!DOCTYPE svg PUBLIC "-//W3C//DTD SVG 1.1//EN" "http://www.w3.org/Graphics/SVG/1.1/DTD/svg11.dtd"><svg t="1577759753608" class="icon" viewBox="0 0 1024 1024" version="1.1" xmlns="http://www.w3.org/2000/svg" p-id="1615" xmlns:xlink="http://www.w3.org/1999/xlink" width="200" height="200"><defs><style type="text/css"></style></defs><path d="M455.535372 439.195494a219.30169 219.30169 0 1 1-219.30169 219.30169 219.545358 219.545358 0 0 1 219.30169-219.30169m0-146.201126a365.502816 365.502816 0 1 0 365.502816 365.502816 365.502816 365.502816 0 0 0-365.502816-365.502816z" fill="#F45D5D" p-id="1616"></path><path d="M467.660319 50.000785L605.045517-0.002437l194.423132 534.170183-137.385199 50.005658z" fill="#F45D5D" p-id="1617"></path><path d="M561.799224 308.613521l100.293973 275.589124 137.404692-49.976419a366.453124 366.453124 0 0 0-237.698665-225.612705z" fill="#EA4747" p-id="1618"></path><path d="M933.881091 88.288424l-37.817358 141.230288-402.73537-109.041674-25.658297-70.468943L604.392486 0.00731l329.488605 88.281114z" fill="#F45D5D" p-id="1619"></path><path d="M665.918793 167.188298L605.123491 0.202245l-0.341136-0.097468-137.112289 49.903318 25.658297 70.468943 172.59043 46.71126z" fill="#EA4747" p-id="1620"></path></svg>